<svg width="373" height="413" viewBox="0 0 373 413" fill="none" xmlns="http://www.w3.org/2000/svg">
<path fill-rule="evenodd" clip-rule="evenodd" d="M373.001 413L-682.947 413L-682.947 3.05176e-05L294.404 0.000201403C131.053 0.146932 -1.32417 132.614 -1.3242 296L-1.32422 413L373 413L373.001 0.000215145L373.001 413Z" fill="#FBC41B"/>
<path fill-rule="evenodd" clip-rule="evenodd" d="M342.649 413L-713.299 413L-713.299 3.05176e-05L264.053 0.000201403C100.701 0.146932 -31.6757 132.614 -31.6758 296L-31.6758 413L342.648 413L342.649 0.000215145L342.649 413Z" fill="#84C441"/>
<path fill-rule="evenodd" clip-rule="evenodd" d="M312.3 413L-743.648 413L-743.648 3.05176e-05L233.705 0.000201403C70.3535 0.146932 -62.0234 132.614 -62.0234 296L-62.0234 413L312.3 413L312.3 413Z" fill="#0D98AD"/>
<path fill-rule="evenodd" clip-rule="evenodd" d="M281.948 413L-774 413L-774 3.05176e-05L203.351 0.000201403C40 0.146932 -92.3769 132.614 -92.3769 296L-92.377 413L281.947 413L281.948 0.000215145L281.948 413Z" fill="#1865AB"/>
</svg>
