<svg width="204" height="249" viewBox="0 0 204 249" fill="none" xmlns="http://www.w3.org/2000/svg">
<path d="M204 185.041L204 238L-0.000244141 238L-3.42933e-05 -3.05176e-05C-2.98262e-05 102.195 82.9289 185.041 185.227 185.041L204 185.041Z" fill="#FBC41B"/>
<path d="M204 200.044L204 239.5L0 239.5L-1.54988e-05 15.0035C-1.10317e-05 117.199 82.9289 200.044 185.227 200.044L204 200.044Z" fill="#84C441"/>
<path d="M204 215.047L204 240.5L1.3122e-07 240.5L-2.76214e-05 30.0066C-2.31543e-05 132.202 82.9289 215.047 185.227 215.047L204 215.047Z" fill="#0D98AD"/>
<path d="M204 230.051L204 249L0 249L-1.32561e-05 45.0099C-1.52338e-05 147.205 82.9289 230.051 185.227 230.051L204 230.051Z" fill="#F9F7F6"/>
</svg>
