<svg width="204" height="567" viewBox="0 0 204 567" fill="none" xmlns="http://www.w3.org/2000/svg">
<path d="M1.42279e-05 381.959L1.52588e-05 45.0098L204 45.0098L204 567C204 464.805 121.071 381.959 18.773 381.959L1.42279e-05 381.959Z" fill="#0D98AD"/>
<path d="M1.42279e-05 366.956L1.52588e-05 30.0069L204 30.0069L204 551.997C204 449.802 121.071 366.956 18.773 366.956L1.42279e-05 366.956Z" fill="#84C441"/>
<path d="M1.42279e-05 351.953L1.52588e-05 15.0034L204 15.0034L204 536.994C204 434.798 121.071 351.953 18.773 351.953L1.42279e-05 351.953Z" fill="#FBC41B"/>
<path d="M-7.02149e-06 336.949L1.52588e-05 6.37763e-05L204 1.78163e-05L204 521.99C204 419.795 121.071 336.949 18.773 336.949L-7.02149e-06 336.949Z" fill="white"/>
</svg>
