<svg width="373" height="413" viewBox="0 0 373 413" fill="none" xmlns="http://www.w3.org/2000/svg">
<path fill-rule="evenodd" clip-rule="evenodd" d="M373.001 -0.000428768L-682.947 -0.000244141L-682.947 413L294.404 413C131.053 412.853 -1.32417 280.386 -1.3242 117L-1.32422 -0.000244141L373 -0.00030959L373.001 413L373.001 -0.000428768Z" fill="#FBC41B"/>
<path fill-rule="evenodd" clip-rule="evenodd" d="M342.649 -0.000428768L-713.299 -0.000244141L-713.299 413L264.053 413C100.701 412.853 -31.6757 280.386 -31.6758 117L-31.6758 -0.000244141L342.648 -0.00030959L342.649 413L342.649 -0.000428768Z" fill="#84C441"/>
<path fill-rule="evenodd" clip-rule="evenodd" d="M312.3 -0.000428768L-743.648 -0.000244141L-743.648 413L233.705 413C70.3535 412.853 -62.0234 280.386 -62.0234 117L-62.0234 -0.000244141L312.3 -0.000309589L312.3 -0.000428768Z" fill="#0D98AD"/>
<path fill-rule="evenodd" clip-rule="evenodd" d="M281.948 -0.000428768L-774 -0.000244141L-774 413L203.351 413C40 412.853 -92.3769 280.386 -92.3769 117L-92.377 -0.000244141L281.947 -0.00030959L281.948 413L281.948 -0.000428768Z" fill="#004573"/>
</svg>
